# xmcd
#
# Track frame offsets:
#	150
#	14968
#	32562
#	47769
#	63274
#	80816
#	97773
#	112598
#	130107
#	145277
#	160795
#	178385
#
# Disc length: 2607 seconds
#
# Revision: 1
# Processed by: cddbd v1.5.2PL0 Copyright (c) Steve Scherf et al.
# Submitted via: audiograbber 1.83.01
#
DISCID=9c0a2d0c
DTITLE=ChartBuster - CB-348
DYEAR=1900
DGENRE=Country
TTITLE0=American Child (Vocals)
TTITLE1=Look At Me Now  (Vocals)
TTITLE2=The Angry American  (Vocals)
TTITLE3=Bareback Jack  (Vocals)
TTITLE4=If There's A Chance To Say I Love You  (Vocals)
TTITLE5=Hard Call To Make  (Vocals)
TTITLE6=American Child
TTITLE7=Look At Me Now
TTITLE8=The Angry American
TTITLE9=Bareback Jack
TTITLE10=If There's A Chance To Say I Love You
TTITLE11=Hard Call To Make
EXTD=
EXTT0=
EXTT1=
EXTT2=
EXTT3=
EXTT4=
EXTT5=
EXTT6=
EXTT7=
EXTT8=
EXTT9=
EXTT10=
EXTT11=
PLAYORDER=
